Coordinates
version=1
nRows=52
nColumns=21
inDegrees=no
endheader
time	ra_wr_s_p	ra_wr_e_f	ra_cmc1_ad_ab	ra_cmc1_f_e	ra_mcp1_f_e	ra_ip1_f_e	ra_mcp2_e_f	ra_pip2_e_f	ra_dip2_e_f	ra_mcp3_e_f	ra_pip3_e_f	ra_dip3_e_f	ra_mcp4_e_f	ra_pip4_e_f	ra_dip4_e_f	ra_mcp5_e_f	ra_pip5_e_f	ra_dip5_e_f	ra_el_e_f	ra_wr_ad_ab
0.250000	1.117040	-0.438777	0.239063	0.239063	-0.215149	-0.430298	0.430298	0.573730	0.430298	0.430298	0.573730	0.430298	0.430298	0.573730	0.430298	0.430298	0.573730	0.430298	1.570796	0.001000
0.251000	1.117040	-0.443732	0.237205	0.237205	-0.213477	-0.426954	0.426954	0.569271	0.426954	0.426954	0.569271	0.426954	0.426954	0.569271	0.426954	0.426954	0.569271	0.426954	1.570796	0.001000
0.252000	1.117040	-0.448685	0.235348	0.235348	-0.211805	-0.423610	0.423610	0.564814	0.423610	0.423610	0.564814	0.423610	0.423610	0.564814	0.423610	0.423610	0.564814	0.423610	1.570796	0.001000
0.253000	1.117040	-0.453636	0.233491	0.233491	-0.210134	-0.420268	0.420268	0.560358	0.420268	0.420268	0.560358	0.420268	0.420268	0.560358	0.420268	0.420268	0.560358	0.420268	1.570796	0.001000
0.254000	1.117040	-0.458584	0.231636	0.231636	-0.208464	-0.416929	0.416929	0.555905	0.416929	0.416929	0.555905	0.416929	0.416929	0.555905	0.416929	0.416929	0.555905	0.416929	1.570796	0.001000
0.255000	1.117040	-0.463528	0.229782	0.229782	-0.206796	-0.413591	0.413591	0.551455	0.413591	0.413591	0.551455	0.413591	0.413591	0.551455	0.413591	0.413591	0.551455	0.413591	1.570796	0.001000
0.256000	1.117040	-0.468467	0.227929	0.227929	-0.205129	-0.410257	0.410257	0.547010	0.410257	0.410257	0.547010	0.410257	0.410257	0.547010	0.410257	0.410257	0.547010	0.410257	1.570796	0.001000
0.257000	1.117040	-0.473401	0.226079	0.226079	-0.203463	-0.406927	0.406927	0.542569	0.406927	0.406927	0.542569	0.406927	0.406927	0.542569	0.406927	0.406927	0.542569	0.406927	1.570796	0.001000
0.258000	1.117040	-0.478328	0.224231	0.224231	-0.201800	-0.403601	0.403601	0.538134	0.403601	0.403601	0.538134	0.403601	0.403601	0.538134	0.403601	0.403601	0.538134	0.403601	1.570796	0.001000
0.259000	1.117040	-0.483249	0.222386	0.222386	-0.200140	-0.400280	0.400280	0.533706	0.400280	0.400280	0.533706	0.400280	0.400280	0.533706	0.400280	0.400280	0.533706	0.400280	1.570796	0.001000
0.260000	1.117040	-0.488161	0.220544	0.220544	-0.198482	-0.396964	0.396964	0.529285	0.396964	0.396964	0.529285	0.396964	0.396964	0.529285	0.396964	0.396964	0.529285	0.396964	1.570796	0.001000
0.261000	1.117040	-0.493064	0.218705	0.218705	-0.196827	-0.393654	0.393654	0.524872	0.393654	0.393654	0.524872	0.393654	0.393654	0.524872	0.393654	0.393654	0.524872	0.393654	1.570796	0.001000
0.262000	1.117040	-0.497958	0.216870	0.216870	-0.195175	-0.390351	0.390351	0.520468	0.390351	0.390351	0.520468	0.390351	0.390351	0.520468	0.390351	0.390351	0.520468	0.390351	1.570796	0.001000
0.263000	1.117040	-0.502841	0.215039	0.215039	-0.193527	-0.387055	0.387055	0.516073	0.387055	0.387055	0.516073	0.387055	0.387055	0.516073	0.387055	0.387055	0.516073	0.387055	1.570796	0.001000
0.264000	1.117040	-0.507713	0.213212	0.213212	-0.191883	-0.383766	0.383766	0.511688	0.383766	0.383766	0.511688	0.383766	0.383766	0.511688	0.383766	0.383766	0.511688	0.383766	1.570796	0.001000
0.265000	1.117040	-0.512573	0.211389	0.211389	-0.190243	-0.380486	0.380486	0.507314	0.380486	0.380486	0.507314	0.380486	0.380486	0.507314	0.380486	0.380486	0.507314	0.380486	1.570796	0.001000
0.266000	1.117040	-0.517420	0.209571	0.209571	-0.188607	-0.377214	0.377214	0.502952	0.377214	0.377214	0.502952	0.377214	0.377214	0.502952	0.377214	0.377214	0.502952	0.377214	1.570796	0.001000
0.267000	1.117040	-0.522253	0.207759	0.207759	-0.186976	-0.373952	0.373952	0.498602	0.373952	0.373952	0.498602	0.373952	0.373952	0.498602	0.373952	0.373952	0.498602	0.373952	1.570796	0.001000
0.268000	1.117040	-0.527072	0.205952	0.205952	-0.185349	-0.370699	0.370699	0.494265	0.370699	0.370699	0.494265	0.370699	0.370699	0.494265	0.370699	0.370699	0.494265	0.370699	1.570796	0.001000
0.269000	1.117040	-0.531876	0.204150	0.204150	-0.183728	-0.367456	0.367456	0.489942	0.367456	0.367456	0.489942	0.367456	0.367456	0.489942	0.367456	0.367456	0.489942	0.367456	1.570796	0.001000
0.270000	1.117040	-0.536664	0.202355	0.202355	-0.182112	-0.364224	0.364224	0.485633	0.364224	0.364224	0.485633	0.364224	0.364224	0.485633	0.364224	0.364224	0.485633	0.364224	1.570796	0.001000
0.271000	1.117040	-0.541435	0.200565	0.200565	-0.180502	-0.361004	0.361004	0.481338	0.361004	0.361004	0.481338	0.361004	0.361004	0.481338	0.361004	0.361004	0.481338	0.361004	1.570796	0.001000
0.272000	1.117040	-0.546189	0.198783	0.198783	-0.178897	-0.357795	0.357795	0.477060	0.357795	0.357795	0.477060	0.357795	0.357795	0.477060	0.357795	0.357795	0.477060	0.357795	1.570796	0.001000
0.273000	1.117040	-0.550925	0.197007	0.197007	-0.177299	-0.354598	0.354598	0.472798	0.354598	0.354598	0.472798	0.354598	0.354598	0.472798	0.354598	0.354598	0.472798	0.354598	1.570796	0.001000
0.274000	1.117040	-0.555642	0.195238	0.195238	-0.175707	-0.351414	0.351414	0.468552	0.351414	0.351414	0.468552	0.351414	0.351414	0.468552	0.351414	0.351414	0.468552	0.351414	1.570796	0.001000
0.275000	1.117040	-0.560340	0.193476	0.193476	-0.174122	-0.348243	0.348243	0.464324	0.348243	0.348243	0.464324	0.348243	0.348243	0.464324	0.348243	0.348243	0.464324	0.348243	1.570796	0.001000
0.276000	1.117040	-0.565017	0.191722	0.191722	-0.172543	-0.345086	0.345086	0.460114	0.345086	0.345086	0.460114	0.345086	0.345086	0.460114	0.345086	0.345086	0.460114	0.345086	1.570796	0.001000
0.277000	1.117040	-0.569674	0.189975	0.189975	-0.170971	-0.341942	0.341942	0.455923	0.341942	0.341942	0.455923	0.341942	0.341942	0.455923	0.341942	0.341942	0.455923	0.341942	1.570796	0.001000
0.278000	1.117040	-0.574310	0.188237	0.188237	-0.169407	-0.338813	0.338813	0.451751	0.338813	0.338813	0.451751	0.338813	0.338813	0.451751	0.338813	0.338813	0.451751	0.338813	1.570796	0.001000
0.279000	1.117040	-0.578924	0.186507	0.186507	-0.167850	-0.335699	0.335699	0.447599	0.335699	0.335699	0.447599	0.335699	0.335699	0.447599	0.335699	0.335699	0.447599	0.335699	1.570796	0.001000
0.280000	1.117040	-0.583515	0.184785	0.184785	-0.166300	-0.332600	0.332600	0.443467	0.332600	0.332600	0.443467	0.332600	0.332600	0.443467	0.332600	0.332600	0.443467	0.332600	1.570796	0.001000
0.281000	1.117040	-0.588082	0.183072	0.183072	-0.164758	-0.329517	0.329517	0.439356	0.329517	0.329517	0.439356	0.329517	0.329517	0.439356	0.329517	0.329517	0.439356	0.329517	1.570796	0.001000
0.282000	1.117040	-0.592626	0.181368	0.181368	-0.163225	-0.326450	0.326450	0.435266	0.326450	0.326450	0.435266	0.326450	0.326450	0.435266	0.326450	0.326450	0.435266	0.326450	1.570796	0.001000
0.283000	1.117040	-0.597146	0.179673	0.179673	-0.161699	-0.323399	0.323399	0.431198	0.323399	0.323399	0.431198	0.323399	0.323399	0.431198	0.323399	0.323399	0.431198	0.323399	1.570796	0.001000
0.284000	1.117040	-0.601641	0.177987	0.177987	-0.160182	-0.320365	0.320365	0.427153	0.320365	0.320365	0.427153	0.320365	0.320365	0.427153	0.320365	0.320365	0.427153	0.320365	1.570796	0.001000
0.285000	1.117040	-0.606111	0.176311	0.176311	-0.158674	-0.317348	0.317348	0.423130	0.317348	0.317348	0.423130	0.317348	0.317348	0.423130	0.317348	0.317348	0.423130	0.317348	1.570796	0.001000
0.286000	1.117040	-0.610554	0.174645	0.174645	-0.157174	-0.314348	0.314348	0.419131	0.314348	0.314348	0.419131	0.314348	0.314348	0.419131	0.314348	0.314348	0.419131	0.314348	1.570796	0.001000
0.287000	1.117040	-0.614971	0.172988	0.172988	-0.155683	-0.311367	0.311367	0.415156	0.311367	0.311367	0.415156	0.311367	0.311367	0.415156	0.311367	0.311367	0.415156	0.311367	1.570796	0.001000
0.288000	1.117040	-0.619361	0.171342	0.171342	-0.154202	-0.308403	0.308403	0.411205	0.308403	0.308403	0.411205	0.308403	0.308403	0.411205	0.308403	0.308403	0.411205	0.308403	1.570796	0.001000
0.289000	1.117040	-0.623724	0.169706	0.169706	-0.152729	-0.305458	0.305458	0.407278	0.305458	0.305458	0.407278	0.305458	0.305458	0.407278	0.305458	0.305458	0.407278	0.305458	1.570796	0.001000
0.290000	1.117040	-0.628060	0.168080	0.168080	-0.151266	-0.302532	0.302532	0.403376	0.302532	0.302532	0.403376	0.302532	0.302532	0.403376	0.302532	0.302532	0.403376	0.302532	1.570796	0.001000
0.291000	1.117040	-0.632366	0.166465	0.166465	-0.149813	-0.299625	0.299625	0.399500	0.299625	0.299625	0.399500	0.299625	0.299625	0.399500	0.299625	0.299625	0.399500	0.299625	1.570796	0.001000
0.292000	1.117040	-0.636645	0.164860	0.164860	-0.148369	-0.296737	0.296737	0.395650	0.296737	0.296737	0.395650	0.296737	0.296737	0.395650	0.296737	0.296737	0.395650	0.296737	1.570796	0.001000
0.293000	1.117040	-0.640894	0.163267	0.163267	-0.146935	-0.293869	0.293869	0.391825	0.293869	0.293869	0.391825	0.293869	0.293869	0.391825	0.293869	0.293869	0.391825	0.293869	1.570796	0.001000
0.294000	1.117040	-0.645114	0.161684	0.161684	-0.145510	-0.291021	0.291021	0.388028	0.291021	0.291021	0.388028	0.291021	0.291021	0.388028	0.291021	0.291021	0.388028	0.291021	1.570796	0.001000
0.295000	1.117040	-0.649304	0.160113	0.160113	-0.144096	-0.288192	0.288192	0.384257	0.288192	0.288192	0.384257	0.288192	0.288192	0.384257	0.288192	0.288192	0.384257	0.288192	1.570796	0.001000
0.296000	1.117040	-0.653463	0.158553	0.158553	-0.142692	-0.285385	0.285385	0.380513	0.285385	0.285385	0.380513	0.285385	0.285385	0.380513	0.285385	0.285385	0.380513	0.285385	1.570796	0.001000
0.297000	1.117040	-0.657593	0.157004	0.157004	-0.141299	-0.282597	0.282597	0.376796	0.282597	0.282597	0.376796	0.282597	0.282597	0.376796	0.282597	0.282597	0.376796	0.282597	1.570796	0.001000
0.298000	1.117040	-0.661691	0.155467	0.155467	-0.139915	-0.279831	0.279831	0.373108	0.279831	0.279831	0.373108	0.279831	0.279831	0.373108	0.279831	0.279831	0.373108	0.279831	1.570796	0.001000
0.299000	1.117040	-0.665759	0.153942	0.153942	-0.138543	-0.277085	0.277085	0.369447	0.277085	0.277085	0.369447	0.277085	0.277085	0.369447	0.277085	0.277085	0.369447	0.277085	1.570796	0.001000
0.300000	1.117040	-0.669795	0.152429	0.152429	-0.137180	-0.274361	0.274361	0.365814	0.274361	0.274361	0.365814	0.274361	0.274361	0.365814	0.274361	0.274361	0.365814	0.274361	1.570796	0.001000
0.301000	1.117040	-0.673799	0.150927	0.150927	-0.135829	-0.271658	0.271658	0.362210	0.271658	0.271658	0.362210	0.271658	0.271658	0.362210	0.271658	0.271658	0.362210	0.271658	1.570796	0.001000
